<?xml version="1.0" encoding="UTF-8" standalone="no"?>
<!-- Created with Inkscape (http://www.inkscape.org/) -->

<svg
   width="146.1606mm"
   height="164.74019mm"
   viewBox="0 0 146.1606 164.74019"
   version="1.1"
   id="svg1"
   xml:space="preserve"
   inkscape:export-filename="bitmap.png"
   inkscape:export-xdpi="96"
   inkscape:export-ydpi="96"
   inkscape:version="1.3.2 (091e20e, 2023-11-25, custom)"
   sodipodi:docname="logo.svg"
   xmlns:inkscape="http://www.inkscape.org/namespaces/inkscape"
   xmlns:sodipodi="http://sodipodi.sourceforge.net/DTD/sodipodi-0.dtd"
   xmlns="http://www.w3.org/2000/svg"
   xmlns:svg="http://www.w3.org/2000/svg"><sodipodi:namedview
     id="namedview1"
     pagecolor="#ffffff"
     bordercolor="#000000"
     borderopacity="0.25"
     inkscape:showpageshadow="2"
     inkscape:pageopacity="0.0"
     inkscape:pagecheckerboard="0"
     inkscape:deskcolor="#d1d1d1"
     inkscape:document-units="mm"
     inkscape:zoom="1.0242632"
     inkscape:cx="205.02542"
     inkscape:cy="324.62359"
     inkscape:window-width="1350"
     inkscape:window-height="827"
     inkscape:window-x="2111"
     inkscape:window-y="95"
     inkscape:window-maximized="0"
     inkscape:current-layer="layer1" /><defs
     id="defs1" /><g
     inkscape:label="Layer 1"
     inkscape:groupmode="layer"
     id="layer1"
     transform="translate(-32.572334,-57.688088)"><path
       style="fill:#643a71;fill-opacity:1"
       d="m 103.32668,222.10106 c -1.28598,-0.4067 -2.26906,-0.90203 -5.027079,-2.53293 -2.57786,-1.52436 -13.41661,-7.95544 -25.003121,-14.83539 -4.729427,-2.80829 -9.968177,-5.90038 -11.641667,-6.87133 -4.42346,-2.56645 -7.073506,-4.12348 -11.244791,-6.60686 -2.037292,-1.2129 -4.478073,-2.65665 -5.423959,-3.20832 -9.822235,-5.72871 -11.117521,-6.72212 -11.959006,-9.17185 -0.531398,-1.547 -0.634623,-75.18762 -0.108219,-77.20343 0.48148,-1.843787 1.529965,-3.626687 2.61427,-4.445447 0.469699,-0.35466 4.425872,-2.72156 8.791497,-5.25976 4.365625,-2.5382 18.814965,-10.95512 32.109646,-18.70427 13.29468,-7.74914 24.777489,-14.369812 25.517359,-14.712601 0.73988,-0.342788 1.95909,-0.699947 2.70936,-0.793688 2.47026,-0.308637 4.0401,0.322796 11.30582,4.547506 3.67097,2.134509 9.88917,5.751497 13.81823,8.037753 3.92906,2.28625 9.82266,5.70105 13.09688,7.58844 6.92484,3.99176 16.34251,9.45889 26.04169,15.11769 3.77268,2.20109 7.18474,4.31366 7.58236,4.69461 0.39762,0.38095 1.06136,1.42502 1.47497,2.320167 l 0.75202,1.62753 v 38.1 38.1 l -0.69316,1.47809 c -0.99634,2.12459 -2.00094,2.97543 -6.87156,5.81981 -6.4511,3.76738 -24.09115,14.18063 -33.57799,19.82173 -21.56299,12.82187 -27.9905,16.5572 -29.22488,16.98398 -1.55815,0.53873 -3.54326,0.58151 -5.03867,0.10857 z m -4.879249,-37.27379 c -0.0191,-7.48264 0.0482,-14.12313 0.14953,-14.75663 0.20984,-1.31228 0.5375,-1.67232 7.243269,-7.95906 2.25557,-2.11463 5.58932,-5.23961 7.40833,-6.9444 l 1.11542,-0.54241 0.0656,20.67825 c 0.038,11.9758 0.0546,22.82243 0.58209,22.47347 1.24323,-0.82242 2.59912,-1.69028 2.59912,-1.69028 0.19514,-0.13666 3.74063,-2.38 7.01485,-4.31179 3.27422,-1.93178 10.35843,-6.13122 15.7427,-9.33208 20.22072,-12.02089 18.89098,-11.11505 20.08404,-13.68159 0.54831,-1.17953 0.55421,-1.43964 0.63325,-27.91354 0.0569,-19.06349 -0.006,-27.17793 -0.21922,-28.31041 -0.65997,-3.50386 -1.40895,-4.15225 -11.60097,-10.04303 -3.69232,-2.13408 -7.85951,-4.573307 -9.26041,-5.420487 -1.40091,-0.84718 -6.41663,-3.80057 -11.14606,-6.56309 -4.72943,-2.76251 -10.44443,-6.12387 -12.7,-7.46968 -2.25557,-1.34581 -5.07101,-2.97315 -6.25652,-3.61632 -3.70848,-2.01192 -5.88312,-1.87013 -10.088099,0.65773 -3.15702,1.89788 -10.05799,5.97397 -21.88767,12.92805 -4.947711,2.90851 -12.150992,7.164637 -16.007294,9.458047 -3.856302,2.29342 -7.338881,4.33931 -7.739063,4.54642 -0.400182,0.20711 -0.727604,0.4756 -0.727604,0.59663 0,0.12103 0.982266,0.79633 2.182812,1.50066 1.200547,0.70433 3.909219,2.30269 6.019271,3.55193 2.110052,1.24923 5.503334,3.25536 7.540625,4.45808 18.914063,11.16588 24.077083,14.30583 24.077083,14.64276 0,0.37092 -8.87741,9.0902 -10.66612,10.47612 -1.17527,0.91062 -2.02368,0.85613 -3.89849,-0.25039 -0.86624,-0.51125 -5.563567,-3.28852 -10.438515,-6.17172 C 53.89266,127.31566 50.0993,125.1045 49.888882,125.1045 c -0.08377,0 -0.119848,9.73336 -0.08017,21.62969 l 0.07214,21.62969 0.595151,1.11362 c 0.327333,0.61249 0.922645,1.42454 1.322917,1.80455 0.689872,0.65495 5.150803,3.4261 5.811474,3.61011 0.315225,0.0878 52.727746,-52.09302 52.727746,-52.49465 0,-0.1207 -1.93477,-1.48555 -4.29948,-3.03299 -2.36471,-1.54745 -6.354869,-4.15958 -8.867009,-5.80473 -4.5449,-2.97636 -5.08976,-3.4997 -5.08976,-4.8887 0,-0.28819 0.29225,-0.81622 0.64943,-1.1734 l 0.64944,-0.64943 h 22.356859 c 15.51139,0 22.54982,0.0879 22.98705,0.28712 0.3466,0.15793 0.82845,0.62278 1.07078,1.03301 0.40113,0.67907 0.4406,2.63056 0.4406,21.78528 v 21.0394 l -0.69634,0.82756 c -0.60262,0.71617 -0.8424,0.81684 -1.78146,0.7479 l -1.08511,-0.0797 -6.15958,-7.9375 c -3.38777,-4.36563 -6.26747,-7.97399 -6.39933,-8.0186 -0.13187,-0.0446 -9.86446,9.4804 -21.62798,21.16667 -11.763529,11.68627 -22.755689,22.5822 -24.427029,24.21317 -1.95349,1.90631 -2.94504,3.05373 -2.77629,3.21271 0.14438,0.13601 3.47719,2.09072 7.40625,4.34379 3.92907,2.25306 9.04875,5.23163 11.37709,6.61904 2.32833,1.3874 4.27439,2.48236 4.32457,2.43324 0.0502,-0.0491 0.0757,-6.21148 0.0566,-13.69413 z"
       id="path1"
       sodipodi:nodetypes="ssssscssssssssssssscccsssssccsscssssssscsssssssssssscsssssscsssssssscsssscsscsssssssscc" /></g></svg>
